Coordinates
version=1
nRows=24
nColumns=34
inDegrees=no

Units are S.I. units (second, meters, Newtons, ...)
If the header above contains a line with 'inDegrees', this indicates whether rotational values are in degrees (yes) or radians (no).

endheader
time	pelvis_tilt	pelvis_list	pelvis_rotation	pelvis_tx	pelvis_ty	pelvis_tz	hip_flexion_r	hip_adduction_r	hip_rotation_r	knee_angle_r	ankle_angle_r	subtalar_angle_r	mtp_angle_r	hip_flexion_l	hip_adduction_l	hip_rotation_l	knee_angle_l	ankle_angle_l	subtalar_angle_l	mtp_angle_l	lumbar_extension	lumbar_bending	lumbar_rotation	arm_flex_r	arm_add_r	arm_rot_r	elbow_flex_r	pro_sup_r	arm_flex_l	arm_add_l	arm_rot_l	elbow_flex_l	pro_sup_l
0.91	0.102886	0.0432297	-0.0743009	0.954298	0.938177	-0.255278	0.484625	-0.127435	-0.0428509	1.10958	0.0715857	-0.0882796	0.00623242	-0.0819195	0.117524	-0.115006	0.200176	0.270209	0.10255	0.00618321	-0.418273	-0.0337427	-0.0471372	-0.00558276	-0.230941	0.00216148	0.733149	2.17679	0.0601507	-0.260991	-0.116392	0.898029	2.09916
0.92	0.103735	0.0384815	-0.0689761	0.965133	0.938284	-0.254678	0.48755	-0.114995	-0.0449417	1.05528	0.0860283	-0.069966	0.00623179	-0.102614	0.112039	-0.113349	0.189443	0.277664	0.115452	0.00618262	-0.420434	-0.0285952	-0.0546325	-0.0193344	-0.23007	-0.00685164	0.724297	2.17891	0.0655629	-0.268168	-0.114524	0.920427	2.09832
0.93	0.104462	0.0340074	-0.063828	0.976009	0.93818	-0.254036	0.487863	-0.103017	-0.0469043	0.995465	0.0998438	-0.0517457	0.00623116	-0.123112	0.106646	-0.112262	0.178859	0.285193	0.128462	0.00618204	-0.422307	-0.0237437	-0.062045	-0.0327496	-0.229352	-0.0159737	0.716287	2.18107	0.0706756	-0.275565	-0.111896	0.942713	2.09742
0.94	0.105186	0.0298779	-0.0588507	0.986942	0.937872	-0.253358	0.485428	-0.09165	-0.0488737	0.930351	0.113083	-0.0331309	0.00623054	-0.143674	0.101468	-0.111631	0.168257	0.29262	0.141518	0.00618145	-0.423963	-0.0192502	-0.069347	-0.0458896	-0.228753	-0.025331	0.709138	2.18315	0.0754936	-0.283129	-0.108535	0.964736	2.09655
0.95	0.106014	0.0261688	-0.0540028	0.997953	0.937367	-0.252651	0.48017	-0.0810429	-0.050985	0.860297	0.125785	-0.0133864	0.00622991	-0.164549	0.0966231	-0.111296	0.15747	0.299759	0.154557	0.00618087	-0.425471	-0.0151768	-0.0765523	-0.0587914	-0.228222	-0.035011	0.702826	2.18505	0.0799912	-0.29082	-0.104497	0.986391	2.09581
0.96	0.107041	0.0229503	-0.0492217	1.00906	0.936671	-0.251922	0.472087	-0.0713221	-0.0533159	0.785829	0.137969	0.00831109	0.00622928	-0.185948	0.0922012	-0.111087	0.146366	0.306449	0.167529	0.00618028	-0.42689	-0.0115769	-0.0837091	-0.0714575	-0.227709	-0.0450479	0.697283	2.18667	0.0841167	-0.298612	-0.0998569	1.00761	2.09529
0.97	0.108346	0.0202755	-0.0444408	1.02028	0.935789	-0.251174	0.461267	-0.0625667	-0.0558333	0.70768	0.149618	0.0326487	0.00622865	-0.208017	0.0882558	-0.110857	0.134881	0.312588	0.180416	0.0061797	-0.428274	-0.00848692	-0.0908861	-0.0838504	-0.227163	-0.0554141	0.692396	2.18796	0.0878024	-0.306494	-0.0946984	1.02833	2.09507
0.98	0.109982	0.0181707	-0.0396026	1.03163	0.934729	-0.250413	0.447892	-0.0547919	-0.0583583	0.626814	0.160674	0.0599282	0.00622803	-0.230811	0.0847914	-0.110517	0.123052	0.318149	0.193231	0.00617911	-0.42966	-0.00591789	-0.0981582	-0.095893	-0.226548	-0.0660148	0.688024	2.18889	0.0909774	-0.314468	-0.0891051	1.04852	2.09522
0.99	0.111974	0.016629	-0.0346673	1.04312	0.9335	-0.249638	0.432251	-0.0479435	-0.0605673	0.54445	0.171039	0.0898516	0.0062274	-0.254272	0.0817578	-0.11005	0.111047	0.323181	0.20602	0.00617853	-0.431068	-0.00384935	-0.105592	-0.107474	-0.225848	-0.0766891	0.684011	2.18947	0.0935806	-0.322539	-0.0831538	1.0681	2.09575
1	0.114321	0.0156036	-0.0296167	1.05476	0.932117	-0.248849	0.414742	-0.0419061	-0.0620428	0.46206	0.180592	0.121404	0.00622677	-0.278208	0.079049	-0.109532	0.0991867	0.327799	0.218856	0.00617794	-0.432492	-0.00222485	-0.113237	-0.118456	-0.225068	-0.0872204	0.680202	2.18971	0.0955698	-0.330708	-0.0769126	1.087	2.09667
1.01	0.116985	0.0150036	-0.0244532	1.06654	0.930601	-0.248042	0.39586	-0.0365239	-0.0623748	0.381352	0.189216	0.15289	0.00622614	-0.302299	0.0765061	-0.109134	0.0879441	0.332158	0.231831	0.00617735	-0.433901	-0.000951161	-0.121116	-0.128689	-0.224237	-0.0973597	0.676459	2.18961	0.0969278	-0.33896	-0.0704452	1.1051	2.09792
1.02	0.119889	0.014696	-0.0191946	1.07847	0.928978	-0.247212	0.376177	-0.0316229	-0.0613039	0.304217	0.196842	0.182146	0.00622552	-0.326109	0.0739213	-0.109137	0.0779275	0.33643	0.245067	0.00617677	-0.435247	0.000104161	-0.129222	-0.138027	-0.2234	-0.106863	0.672676	2.1892	0.0976614	-0.347248	-0.0638182	1.12224	2.09945
1.03	0.122923	0.0145127	-0.0138695	1.09055	0.927272	-0.24635	0.356312	-0.027027	-0.058872	0.232634	0.203481	0.206904	0.00622489	-0.34913	0.0710417	-0.109936	0.0698348	0.34078	0.258732	0.00617618	-0.436475	0.00111572	-0.137509	-0.146339	-0.222606	-0.115539	0.668784	2.18848	0.0977975	-0.355482	-0.0571101	1.13826	2.10117
1.04	0.125973	0.0142527	-0.00851505	1.10276	0.925515	-0.245449	0.336884	-0.0225619	-0.0555295	0.168535	0.20924	0.225234	0.00622426	-0.370836	0.0675747	-0.112038	0.0643859	0.345348	0.273058	0.0061756	-0.437525	0.00230179	-0.145884	-0.153533	-0.2219	-0.123294	0.664759	2.18748	0.0973746	-0.363525	-0.0504179	1.15295	2.103
1.05	0.128937	0.0136816	-0.0031797	1.11511	0.923742	-0.244509	0.318462	-0.0180448	-0.0521437	0.113626	0.214302	0.235938	0.00622363	-0.390753	0.0631939	-0.116034	0.0622395	0.350222	0.288351	0.00617501	-0.438352	0.00392325	-0.154204	-0.159564	-0.221314	-0.130168	0.660623	2.18624	0.0964338	-0.371188	-0.0438594	1.1661	2.10485
1.06	0.131743	0.0125333	0.00207277	1.12757	0.921988	-0.243528	0.301501	-0.0132642	-0.0498691	0.0691778	0.218851	0.238787	0.00622301	-0.408523	0.0575514	-0.122553	0.0639079	0.355422	0.304961	0.00617443	-0.43893	0.00627843	-0.162264	-0.16445	-0.220857	-0.136341	0.656446	2.18482	0.0950083	-0.378242	-0.0375687	1.17752	2.10665
1.07	0.134363	0.0105159	0.00715871	1.14016	0.920283	-0.242509	0.286288	-0.00796179	-0.0498867	0.0358331	0.22297	0.234499	0.00622238	-0.423965	0.0502975	-0.132164	0.0696815	0.360866	0.323223	0.00617384	-0.439259	0.00969063	-0.169805	-0.168273	-0.220523	-0.14212	0.652343	2.1833	0.0931151	-0.384426	-0.0316883	1.18701	2.10836
1.08	0.136809	0.00732951	0.0119721	1.15288	0.91865	-0.241457	0.272899	-0.00183232	-0.0530772	0.0134709	0.226521	0.22449	0.00622175	-0.437096	0.0411139	-0.145272	0.0795812	0.366351	0.343351	0.00617326	-0.439362	0.0144844	-0.176522	-0.171179	-0.220292	-0.147883	0.648466	2.18174	0.0907495	-0.389475	-0.0263566	1.19442	2.10992
1.09	0.139114	0.00270002	0.016383	1.16573	0.917103	-0.240371	0.261213	0.00544595	-0.0597602	0.00121708	0.229081	0.210525	0.00622113	-0.448118	0.0297667	-0.161977	0.0933456	0.371518	0.365287	0.00617267	-0.439271	0.0209452	-0.182087	-0.173358	-0.220141	-0.15401	0.644988	2.18022	0.0878841	-0.393136	-0.0216953	1.19963	2.11129
1.1	0.141313	-0.00357839	0.0202316	1.17874	0.915677	-0.239244	0.250996	0.0141451	-0.0696337	-0.0023406	0.22998	0.194451	0.0062205	-0.457361	0.0161802	-0.181902	0.110449	0.375818	0.388471	0.00617209	-0.438991	0.0292587	-0.186173	-0.175021	-0.220055	-0.160803	0.642071	2.17876	0.0844755	-0.395194	-0.0177995	1.20257	2.11242
1.11	0.14339	-0.0115889	0.0233354	1.19193	0.914385	-0.238067	0.241992	0.0244298	-0.0818747	0.00114214	0.22844	0.177987	0.00621987	-0.465205	0.000489163	-0.204082	0.130166	0.378502	0.411675	0.0061715	-0.438487	0.0394674	-0.18849	-0.176364	-0.220031	-0.168416	0.639838	2.1774	0.0804728	-0.395493	-0.0147296	1.20321	2.11324
1.12	0.145276	-0.0212773	0.0255044	1.20533	0.913231	-0.23683	0.234009	0.0363175	-0.0953402	0.0100105	0.223762	0.162561	0.00621924	-0.471994	-0.01696	-0.227018	0.151691	0.378668	0.433053	0.00617092	-0.437676	0.0514517	-0.188819	-0.177537	-0.220081	-0.176804	0.638344	2.17612	0.0758284	-0.393957	-0.0125071	1.20153	2.11366
1.13	0.146848	-0.0324702	0.0265708	1.21893	0.912215	-0.235522	0.226958	0.0496853	-0.108799	0.02277	0.215523	0.149166	0.00621862	-0.47794	-0.0356864	-0.248988	0.174325	0.375383	0.450525	0.00617033	-0.436441	0.0649557	-0.187038	-0.178617	-0.220227	-0.185719	0.637561	2.17487	0.0705104	-0.3906	-0.0111112	1.19758	2.11363
1.14	0.147941	-0.0449219	0.0264166	1.23274	0.911339	-0.234133	0.220867	0.0643128	-0.121136	0.0381935	0.203724	0.138268	0.00621799	-0.483025	-0.0552136	-0.268585	0.197694	0.367874	0.462458	0.00616974	-0.434648	0.0796415	-0.183137	-0.179602	-0.220496	-0.194739	0.637384	2.17362	0.0645143	-0.385531	-0.0104782	1.19142	2.11309
